<?xml version="1.0" encoding="iso-8859-1"?>
<!-- Generator: Adobe Illustrator 27.6.1, SVG Export Plug-In . SVG Version: 6.00 Build 0)  -->
<svg version="1.1" id="Shapes" xmlns="http://www.w3.org/2000/svg" xmlns:xlink="http://www.w3.org/1999/xlink" x="0px" y="0px"
	 viewBox="0 0 600 600" style="enable-background:new 0 0 600 600;" xml:space="preserve">
<g>
	
		<ellipse transform="matrix(0.5651 -0.825 0.825 0.5651 -27.6347 89.239)" style="fill:#FA0028;" cx="70.833" cy="70.833" rx="20.833" ry="20.833"/>
	
		<ellipse transform="matrix(0.9605 -0.2782 0.2782 0.9605 -15.2648 34.094)" style="fill:#FA0028;" cx="112.5" cy="70.833" rx="20.833" ry="20.833"/>
	
		<ellipse transform="matrix(0.1532 -0.9882 0.9882 0.1532 60.5573 212.3326)" style="fill:#FA0028;" cx="154.167" cy="70.833" rx="20.833" ry="20.833"/>
	
		<ellipse transform="matrix(0.9239 -0.3827 0.3827 0.9239 -12.1998 80.3342)" style="fill:#FA0028;" cx="195.833" cy="70.833" rx="20.833" ry="20.833"/>
	
		<ellipse transform="matrix(0.9239 -0.3827 0.3827 0.9239 -9.0281 96.2793)" style="fill:#FA0028;" cx="237.5" cy="70.833" rx="20.833" ry="20.833"/>
	<circle style="fill:#FA0028;" cx="279.167" cy="70.833" r="20.833"/>
	<circle style="fill:#FA0028;" cx="70.833" cy="112.5" r="20.833"/>
	<circle style="fill:#FA0028;" cx="112.5" cy="112.5" r="20.833"/>
	
		<ellipse transform="matrix(0.068 -0.9977 0.9977 0.068 31.4376 258.6547)" style="fill:#FA0028;" cx="154.167" cy="112.5" rx="20.833" ry="20.833"/>
	
		<ellipse transform="matrix(0.9871 -0.1602 0.1602 0.9871 -15.4918 32.8217)" style="fill:#FA0028;" cx="195.833" cy="112.5" rx="20.833" ry="20.833"/>
	
		<ellipse transform="matrix(0.3827 -0.9239 0.9239 0.3827 42.6763 288.8696)" style="fill:#FA0028;" cx="237.5" cy="112.5" rx="20.833" ry="20.833"/>
	<circle style="fill:#FA0028;" cx="279.167" cy="112.5" r="20.833"/>
	
		<ellipse transform="matrix(0.9804 -0.197 0.197 0.9804 -28.9879 16.979)" style="fill:#FA0028;" cx="70.833" cy="154.167" rx="20.833" ry="20.833"/>
	
		<ellipse transform="matrix(0.9691 -0.2466 0.2466 0.9691 -34.5411 32.501)" style="fill:#FA0028;" cx="112.5" cy="154.167" rx="20.833" ry="20.833"/>
	
		<ellipse transform="matrix(0.8957 -0.4447 0.4447 0.8957 -52.4719 84.631)" style="fill:#FA0028;" cx="154.167" cy="154.167" rx="20.833" ry="20.833"/>
	
		<ellipse transform="matrix(0.1602 -0.9871 0.9871 0.1602 12.2886 322.7768)" style="fill:#FA0028;" cx="195.833" cy="154.167" rx="20.833" ry="20.833"/>
	
		<ellipse transform="matrix(0.9951 -0.0985 0.0985 0.9951 -14.0353 24.1528)" style="fill:#FA0028;" cx="237.5" cy="154.167" rx="20.833" ry="20.833"/>
	<circle style="fill:#FA0028;" cx="279.167" cy="154.167" r="20.833"/>
	
		<ellipse transform="matrix(0.5651 -0.825 0.825 0.5651 -130.7585 143.5956)" style="fill:#FA0028;" cx="70.833" cy="195.833" rx="20.833" ry="20.833"/>
	
		<ellipse transform="matrix(0.7616 -0.6481 0.6481 0.7616 -100.091 119.5967)" style="fill:#FA0028;" cx="112.5" cy="195.833" rx="20.833" ry="20.833"/>
	
		<ellipse transform="matrix(0.943 -0.3327 0.3327 0.943 -56.3661 62.4391)" style="fill:#FA0028;" cx="154.167" cy="195.833" rx="20.833" ry="20.833"/>
	
		<ellipse transform="matrix(0.5257 -0.8507 0.8507 0.5257 -73.7081 259.4636)" style="fill:#FA0028;" cx="195.833" cy="195.833" rx="20.833" ry="20.833"/>
	
		<ellipse transform="matrix(0.9239 -0.3827 0.3827 0.9239 -56.8636 105.7943)" style="fill:#FA0028;" cx="237.5" cy="195.833" rx="20.833" ry="20.833"/>
	<circle style="fill:#FA0028;" cx="279.167" cy="195.833" r="20.833"/>
	<circle style="fill:#FA0028;" cx="70.833" cy="237.5" r="20.833"/>
	<circle style="fill:#FA0028;" cx="112.5" cy="237.5" r="20.833"/>
	<circle style="fill:#FA0028;" cx="154.167" cy="237.5" r="20.833"/>
	<circle style="fill:#FA0028;" cx="195.833" cy="237.5" r="20.833"/>
	<circle style="fill:#FA0028;" cx="237.5" cy="237.5" r="20.833"/>
	<circle style="fill:#FA0028;" cx="279.167" cy="237.5" r="20.833"/>
	
		<ellipse transform="matrix(0.9804 -0.197 0.197 0.9804 -53.6175 19.4295)" style="fill:#FA0028;" cx="70.833" cy="279.167" rx="20.833" ry="20.833"/>
	
		<ellipse transform="matrix(0.9691 -0.2466 0.2466 0.9691 -65.3639 36.3608)" style="fill:#FA0028;" cx="112.5" cy="279.167" rx="20.833" ry="20.833"/>
	
		<ellipse transform="matrix(0.8957 -0.4447 0.4447 0.8957 -108.0542 97.6685)" style="fill:#FA0028;" cx="154.167" cy="279.167" rx="20.833" ry="20.833"/>
	
		<ellipse transform="matrix(0.982 -0.1891 0.1891 0.982 -49.2591 42.0709)" style="fill:#FA0028;" cx="195.833" cy="279.167" rx="20.833" ry="20.833"/>
	
		<ellipse transform="matrix(0.9571 -0.2898 0.2898 0.9571 -70.7073 80.8021)" style="fill:#FA0028;" cx="237.5" cy="279.167" rx="20.833" ry="20.833"/>
	
		<ellipse transform="matrix(0.9239 -0.3827 0.3827 0.9239 -85.5821 128.0826)" style="fill:#FA0028;" cx="279.167" cy="279.167" rx="20.833" ry="20.833"/>
	
		<ellipse transform="matrix(0.5651 -0.825 0.825 0.5651 -233.8823 197.9523)" style="fill:#FA0028;" cx="70.833" cy="320.833" rx="20.833" ry="20.833"/>
	
		<ellipse transform="matrix(0.7616 -0.6481 0.6481 0.7616 -181.099 149.3985)" style="fill:#FA0028;" cx="112.5" cy="320.833" rx="20.833" ry="20.833"/>
	
		<ellipse transform="matrix(0.943 -0.3327 0.3327 0.943 -97.949 69.5584)" style="fill:#FA0028;" cx="154.167" cy="320.833" rx="20.833" ry="20.833"/>
	
		<ellipse transform="matrix(0.5257 -0.8507 0.8507 0.5257 -180.0395 318.7472)" style="fill:#FA0028;" cx="195.833" cy="320.833" rx="20.833" ry="20.833"/>
	
		<ellipse transform="matrix(0.8507 -0.5257 0.5257 0.8507 -133.2018 172.7778)" style="fill:#FA0028;" cx="237.5" cy="320.833" rx="20.833" ry="20.833"/>
	<circle style="fill:#FA0028;" cx="279.167" cy="320.833" r="20.833"/>
	<circle style="fill:#FA0028;" cx="70.833" cy="362.5" r="20.833"/>
	<circle style="fill:#FA0028;" cx="112.5" cy="362.5" r="20.833"/>
	<circle style="fill:#FA0028;" cx="154.167" cy="362.5" r="20.833"/>
	<circle style="fill:#FA0028;" cx="195.833" cy="362.5" r="20.833"/>
	
		<ellipse transform="matrix(0.9871 -0.1602 0.1602 0.9871 -54.9994 42.7241)" style="fill:#FA0028;" cx="237.5" cy="362.5" rx="20.833" ry="20.833"/>
	<circle style="fill:#FA0028;" cx="279.167" cy="362.5" r="20.833"/>
	
		<ellipse transform="matrix(0.9804 -0.197 0.197 0.9804 -78.247 21.88)" style="fill:#FA0028;" cx="70.833" cy="404.167" rx="20.833" ry="20.833"/>
	
		<ellipse transform="matrix(0.9691 -0.2466 0.2466 0.9691 -96.1868 40.2206)" style="fill:#FA0028;" cx="112.5" cy="404.167" rx="20.833" ry="20.833"/>
	
		<ellipse transform="matrix(0.8957 -0.4447 0.4447 0.8957 -163.6365 110.7059)" style="fill:#FA0028;" cx="154.167" cy="404.167" rx="20.833" ry="20.833"/>
	
		<ellipse transform="matrix(0.9239 -0.3827 0.3827 0.9239 -139.761 105.7076)" style="fill:#FA0028;" cx="195.833" cy="404.167" rx="20.833" ry="20.833"/>
	
		<ellipse transform="matrix(0.9239 -0.3827 0.3827 0.9239 -136.5895 121.653)" style="fill:#FA0028;" cx="237.5" cy="404.167" rx="20.833" ry="20.833"/>
	<circle style="fill:#FA0028;" cx="279.167" cy="404.167" r="20.833"/>
	
		<ellipse transform="matrix(0.5651 -0.825 0.825 0.5651 -337.0061 252.3089)" style="fill:#FA0028;" cx="70.833" cy="445.833" rx="20.833" ry="20.833"/>
	
		<ellipse transform="matrix(0.7616 -0.6481 0.6481 0.7616 -262.107 179.2002)" style="fill:#FA0028;" cx="112.5" cy="445.833" rx="20.833" ry="20.833"/>
	
		<ellipse transform="matrix(0.1532 -0.9882 0.9882 0.1532 -310.0182 529.8997)" style="fill:#FA0028;" cx="154.167" cy="445.833" rx="20.833" ry="20.833"/>
	
		<ellipse transform="matrix(0.9951 -0.0985 0.0985 0.9951 -42.978 21.4665)" style="fill:#FA0028;" cx="195.833" cy="445.833" rx="20.833" ry="20.833"/>
	
		<ellipse transform="matrix(0.1602 -0.9871 0.9871 0.1602 -240.6196 608.8526)" style="fill:#FA0028;" cx="237.5" cy="445.833" rx="20.833" ry="20.833"/>
	<circle style="fill:#FA0028;" cx="279.167" cy="445.833" r="20.833"/>
	<circle style="fill:#FA0028;" cx="70.833" cy="487.5" r="20.833"/>
	
		<ellipse transform="matrix(0.9871 -0.1602 0.1602 0.9871 -76.6362 24.3154)" style="fill:#FA0028;" cx="112.5" cy="487.5" rx="20.833" ry="20.833"/>
	
		<ellipse transform="matrix(0.9986 -0.0535 0.0535 0.9986 -25.8833 8.9547)" style="fill:#FA0028;" cx="154.167" cy="487.5" rx="20.833" ry="20.833"/>
	
		<ellipse transform="matrix(0.3827 -0.9239 0.9239 0.3827 -329.5001 481.8684)" style="fill:#FA0028;" cx="195.833" cy="487.5" rx="20.833" ry="20.833"/>
	
		<ellipse transform="matrix(0.9871 -0.1602 0.1602 0.9871 -75.0222 44.3382)" style="fill:#FA0028;" cx="237.5" cy="487.5" rx="20.833" ry="20.833"/>
	<circle style="fill:#FA0028;" cx="279.167" cy="487.5" r="20.833"/>
	
		<ellipse transform="matrix(0.8759 -0.4825 0.4825 0.8759 -246.5196 99.8395)" style="fill:#FA0028;" cx="70.833" cy="529.167" rx="20.833" ry="20.833"/>
	
		<ellipse transform="matrix(0.8325 -0.554 0.554 0.8325 -274.3382 150.9739)" style="fill:#FA0028;" cx="112.5" cy="529.167" rx="20.833" ry="20.833"/>
	
		<ellipse transform="matrix(0.9954 -0.0958 0.0958 0.9954 -49.9709 17.1973)" style="fill:#FA0028;" cx="154.167" cy="529.167" rx="20.833" ry="20.833"/>
	
		<ellipse transform="matrix(0.9239 -0.3827 0.3827 0.9239 -187.5965 115.2227)" style="fill:#FA0028;" cx="195.833" cy="529.167" rx="20.833" ry="20.833"/>
	
		<ellipse transform="matrix(0.9239 -0.3827 0.3827 0.9239 -184.425 131.1681)" style="fill:#FA0028;" cx="237.5" cy="529.167" rx="20.833" ry="20.833"/>
	<circle style="fill:#FA0028;" cx="279.167" cy="529.167" r="20.833"/>
	
		<ellipse transform="matrix(0.9239 -0.3827 0.3827 0.9239 -2.6847 128.1698)" style="fill:#FA0028;" cx="320.833" cy="70.833" rx="20.833" ry="20.833"/>
	
		<ellipse transform="matrix(0.9239 -0.3827 0.3827 0.9239 0.4869 144.1147)" style="fill:#FA0028;" cx="362.5" cy="70.833" rx="20.833" ry="20.833"/>
	<circle style="fill:#FA0028;" cx="404.167" cy="70.833" r="20.833"/>
	
		<ellipse transform="matrix(0.9239 -0.3827 0.3827 0.9239 6.8304 176.0053)" style="fill:#FA0028;" cx="445.833" cy="70.833" rx="20.833" ry="20.833"/>
	
		<ellipse transform="matrix(0.9239 -0.3827 0.3827 0.9239 10.002 191.9502)" style="fill:#FA0028;" cx="487.5" cy="70.833" rx="20.833" ry="20.833"/>
	<circle style="fill:#FA0028;" cx="529.167" cy="70.833" r="20.833"/>
	
		<ellipse transform="matrix(0.9871 -0.1602 0.1602 0.9871 -13.8777 52.8445)" style="fill:#FA0028;" cx="320.833" cy="112.5" rx="20.833" ry="20.833"/>
	
		<ellipse transform="matrix(0.3827 -0.9239 0.9239 0.3827 119.8409 404.3546)" style="fill:#FA0028;" cx="362.5" cy="112.5" rx="20.833" ry="20.833"/>
	<circle style="fill:#FA0028;" cx="404.167" cy="112.5" r="20.833"/>
	
		<ellipse transform="matrix(0.9871 -0.1602 0.1602 0.9871 -12.2637 72.8673)" style="fill:#FA0028;" cx="445.833" cy="112.5" rx="20.833" ry="20.833"/>
	
		<ellipse transform="matrix(0.9871 -0.1602 0.1602 0.9871 -11.7256 79.5416)" style="fill:#FA0028;" cx="487.5" cy="112.5" rx="20.833" ry="20.833"/>
	<circle style="fill:#FA0028;" cx="529.167" cy="112.5" r="20.833"/>
	
		<ellipse transform="matrix(0.1602 -0.9871 0.9871 0.1602 117.2659 446.1627)" style="fill:#FA0028;" cx="320.833" cy="154.167" rx="20.833" ry="20.833"/>
	
		<ellipse transform="matrix(0.9951 -0.0985 0.0985 0.9951 -13.427 36.4699)" style="fill:#FA0028;" cx="362.5" cy="154.167" rx="20.833" ry="20.833"/>
	<circle style="fill:#FA0028;" cx="404.167" cy="154.167" r="20.833"/>
	
		<ellipse transform="matrix(0.8507 -0.5257 0.5257 0.8507 -14.4652 257.4137)" style="fill:#FA0028;" cx="445.833" cy="154.167" rx="20.833" ry="20.833"/>
	
		<ellipse transform="matrix(0.5257 -0.8507 0.8507 0.5257 100.0642 487.8088)" style="fill:#FA0028;" cx="487.5" cy="154.167" rx="20.833" ry="20.833"/>
	
		<ellipse transform="matrix(0.9239 -0.3827 0.3827 0.9239 -18.7166 214.2389)" style="fill:#FA0028;" cx="529.167" cy="154.167" rx="20.833" ry="20.833"/>
	
		<ellipse transform="matrix(0.9239 -0.3827 0.3827 0.9239 -50.5202 137.6849)" style="fill:#FA0028;" cx="320.833" cy="195.833" rx="20.833" ry="20.833"/>
	
		<ellipse transform="matrix(0.9239 -0.3827 0.3827 0.9239 -47.3485 153.6298)" style="fill:#FA0028;" cx="362.5" cy="195.833" rx="20.833" ry="20.833"/>
	
		<ellipse transform="matrix(0.9239 -0.3827 0.3827 0.9239 -44.1768 169.5746)" style="fill:#FA0028;" cx="404.167" cy="195.833" rx="20.833" ry="20.833"/>
	
		<ellipse transform="matrix(0.9571 -0.2898 0.2898 0.9571 -37.6196 137.598)" style="fill:#FA0028;" cx="445.833" cy="195.833" rx="20.833" ry="20.833"/>
	
		<ellipse transform="matrix(0.982 -0.1891 0.1891 0.982 -28.2374 95.7238)" style="fill:#FA0028;" cx="487.5" cy="195.833" rx="20.833" ry="20.833"/>
	
		<ellipse transform="matrix(0.9239 -0.3827 0.3827 0.9239 -34.6618 217.4099)" style="fill:#FA0028;" cx="529.167" cy="195.833" rx="20.833" ry="20.833"/>
	
		<ellipse transform="matrix(0.9871 -0.1602 0.1602 0.9871 -33.9005 54.4586)" style="fill:#FA0028;" cx="320.833" cy="237.5" rx="20.833" ry="20.833"/>
	<circle style="fill:#FA0028;" cx="362.5" cy="237.5" r="20.833"/>
	<circle style="fill:#FA0028;" cx="404.167" cy="237.5" r="20.833"/>
	<circle style="fill:#FA0028;" cx="445.833" cy="237.5" r="20.833"/>
	<circle style="fill:#FA0028;" cx="487.5" cy="237.5" r="20.833"/>
	<circle style="fill:#FA0028;" cx="529.167" cy="237.5" r="20.833"/>
	
		<ellipse transform="matrix(0.8507 -0.5257 0.5257 0.8507 -98.8505 210.3659)" style="fill:#FA0028;" cx="320.833" cy="279.167" rx="20.833" ry="20.833"/>
	
		<ellipse transform="matrix(0.5257 -0.8507 0.8507 0.5257 -65.5508 440.7611)" style="fill:#FA0028;" cx="362.5" cy="279.167" rx="20.833" ry="20.833"/>
	
		<ellipse transform="matrix(0.9239 -0.3827 0.3827 0.9239 -76.0672 175.9185)" style="fill:#FA0028;" cx="404.167" cy="279.167" rx="20.833" ry="20.833"/>
	
		<ellipse transform="matrix(0.8507 -0.5257 0.5257 0.8507 -80.1817 276.0824)" style="fill:#FA0028;" cx="445.833" cy="279.167" rx="20.833" ry="20.833"/>
	
		<ellipse transform="matrix(0.5257 -0.8507 0.8507 0.5257 -6.2672 547.0925)" style="fill:#FA0028;" cx="487.5" cy="279.167" rx="20.833" ry="20.833"/>
	
		<ellipse transform="matrix(0.9239 -0.3827 0.3827 0.9239 -66.5521 223.754)" style="fill:#FA0028;" cx="529.167" cy="279.167" rx="20.833" ry="20.833"/>
	
		<ellipse transform="matrix(0.9571 -0.2898 0.2898 0.9571 -79.206 106.7385)" style="fill:#FA0028;" cx="320.833" cy="320.833" rx="20.833" ry="20.833"/>
	
		<ellipse transform="matrix(0.982 -0.1891 0.1891 0.982 -54.1313 74.3407)" style="fill:#FA0028;" cx="362.5" cy="320.833" rx="20.833" ry="20.833"/>
	
		<ellipse transform="matrix(0.9239 -0.3827 0.3827 0.9239 -92.0122 179.0896)" style="fill:#FA0028;" cx="404.167" cy="320.833" rx="20.833" ry="20.833"/>
	
		<ellipse transform="matrix(0.9571 -0.2898 0.2898 0.9571 -73.8425 142.9615)" style="fill:#FA0028;" cx="445.833" cy="320.833" rx="20.833" ry="20.833"/>
	
		<ellipse transform="matrix(0.982 -0.1891 0.1891 0.982 -51.8759 97.9792)" style="fill:#FA0028;" cx="487.5" cy="320.833" rx="20.833" ry="20.833"/>
	
		<ellipse transform="matrix(0.9239 -0.3827 0.3827 0.9239 -82.4971 226.9249)" style="fill:#FA0028;" cx="529.167" cy="320.833" rx="20.833" ry="20.833"/>
	
		<ellipse transform="matrix(0.3827 -0.9239 0.9239 0.3827 -136.8505 520.1888)" style="fill:#FA0028;" cx="320.833" cy="362.5" rx="20.833" ry="20.833"/>
	<circle style="fill:#FA0028;" cx="362.5" cy="362.5" r="20.833"/>
	<circle style="fill:#FA0028;" cx="404.167" cy="362.5" r="20.833"/>
	<circle style="fill:#FA0028;" cx="445.833" cy="362.5" r="20.833"/>
	<circle style="fill:#FA0028;" cx="487.5" cy="362.5" r="20.833"/>
	<circle style="fill:#FA0028;" cx="529.167" cy="362.5" r="20.833"/>
	
		<ellipse transform="matrix(0.9239 -0.3827 0.3827 0.9239 -130.246 153.5431)" style="fill:#FA0028;" cx="320.833" cy="404.167" rx="20.833" ry="20.833"/>
	
		<ellipse transform="matrix(0.9239 -0.3827 0.3827 0.9239 -127.0744 169.4886)" style="fill:#FA0028;" cx="362.5" cy="404.167" rx="20.833" ry="20.833"/>
	
		<ellipse transform="matrix(0.9239 -0.3827 0.3827 0.9239 -123.9027 185.4336)" style="fill:#FA0028;" cx="404.167" cy="404.167" rx="20.833" ry="20.833"/>
	
		<ellipse transform="matrix(0.8507 -0.5257 0.5257 0.8507 -145.8983 294.7512)" style="fill:#FA0028;" cx="445.833" cy="404.167" rx="20.833" ry="20.833"/>
	
		<ellipse transform="matrix(0.5257 -0.8507 0.8507 0.5257 -112.5985 606.3761)" style="fill:#FA0028;" cx="487.5" cy="404.167" rx="20.833" ry="20.833"/>
	
		<ellipse transform="matrix(0.9239 -0.3827 0.3827 0.9239 -114.3876 233.2691)" style="fill:#FA0028;" cx="529.167" cy="404.167" rx="20.833" ry="20.833"/>
	
		<ellipse transform="matrix(0.9951 -0.0985 0.0985 0.9951 -42.3697 33.7836)" style="fill:#FA0028;" cx="320.833" cy="445.833" rx="20.833" ry="20.833"/>
	
		<ellipse transform="matrix(0.1602 -0.9871 0.9871 0.1602 -135.6422 732.2386)" style="fill:#FA0028;" cx="362.5" cy="445.833" rx="20.833" ry="20.833"/>
	<circle style="fill:#FA0028;" cx="404.167" cy="445.833" r="20.833"/>
	
		<ellipse transform="matrix(0.9571 -0.2898 0.2898 0.9571 -110.0655 148.325)" style="fill:#FA0028;" cx="445.833" cy="445.833" rx="20.833" ry="20.833"/>
	
		<ellipse transform="matrix(0.982 -0.1891 0.1891 0.982 -75.5144 100.2347)" style="fill:#FA0028;" cx="487.5" cy="445.833" rx="20.833" ry="20.833"/>
	
		<ellipse transform="matrix(0.9239 -0.3827 0.3827 0.9239 -130.3325 236.44)" style="fill:#FA0028;" cx="529.167" cy="445.833" rx="20.833" ry="20.833"/>
	
		<ellipse transform="matrix(0.3827 -0.9239 0.9239 0.3827 -252.3355 597.3534)" style="fill:#FA0028;" cx="320.833" cy="487.5" rx="20.833" ry="20.833"/>
	
		<ellipse transform="matrix(0.9871 -0.1602 0.1602 0.9871 -73.4081 64.361)" style="fill:#FA0028;" cx="362.5" cy="487.5" rx="20.833" ry="20.833"/>
	<circle style="fill:#FA0028;" cx="404.167" cy="487.5" r="20.833"/>
	
		<ellipse transform="matrix(0.3827 -0.9239 0.9239 0.3827 -175.1709 712.8383)" style="fill:#FA0028;" cx="445.833" cy="487.5" rx="20.833" ry="20.833"/>
	<circle style="fill:#FA0028;" cx="487.5" cy="487.5" r="20.833"/>
	<circle style="fill:#FA0028;" cx="529.167" cy="487.5" r="20.833"/>
	
		<ellipse transform="matrix(0.9239 -0.3827 0.3827 0.9239 -178.0814 163.0582)" style="fill:#FA0028;" cx="320.833" cy="529.167" rx="20.833" ry="20.833"/>
	
		<ellipse transform="matrix(0.9239 -0.3827 0.3827 0.9239 -174.91 179.0036)" style="fill:#FA0028;" cx="362.5" cy="529.167" rx="20.833" ry="20.833"/>
	<circle style="fill:#FA0028;" cx="404.167" cy="529.167" r="20.833"/>
	
		<ellipse transform="matrix(0.9239 -0.3827 0.3827 0.9239 -168.5664 210.8936)" style="fill:#FA0028;" cx="445.833" cy="529.167" rx="20.833" ry="20.833"/>
	
		<ellipse transform="matrix(0.9239 -0.3827 0.3827 0.9239 -165.3949 226.8392)" style="fill:#FA0028;" cx="487.5" cy="529.167" rx="20.833" ry="20.833"/>
	
		<ellipse transform="matrix(0.9239 -0.3827 0.3827 0.9239 -162.2231 242.7842)" style="fill:#FA0028;" cx="529.167" cy="529.167" rx="20.833" ry="20.833"/>
</g>
</svg>
