<?xml version="1.0" encoding="iso-8859-1"?>
<!-- Generator: Adobe Illustrator 27.6.1, SVG Export Plug-In . SVG Version: 6.00 Build 0)  -->
<svg version="1.1" id="Shapes" xmlns="http://www.w3.org/2000/svg" xmlns:xlink="http://www.w3.org/1999/xlink" x="0px" y="0px"
	 viewBox="0 0 600 600" style="enable-background:new 0 0 600 600;" xml:space="preserve">
<path style="fill:#FFB446;" d="M500.304,508.32c-13.429,13.543-10.257,31.013-29.251,31.013c-18.995,0-18.995,5.89-37.99,5.89
	c-18.996,0-18.996-37.214-37.991-37.214c-18.993,0-18.993,35.898-37.985,35.898c-18.993,0-18.993-34.674-37.986-34.674
	c-18.995,0-18.995,40.767-37.991,40.767c-18.996,0-18.996-63.053-37.991-63.053c-18.997,0-18.997-5.791-37.993-5.791
	c-18.996,0-18.996,21.879-37.992,21.879c-18.999,0-18.999,1.154-37.997,1.154c-18.999,0-34.835,36.84-48.27,23.298
	c-13.433-13.54-9.577-29.51-9.577-48.66c0-19.151,9.663-19.151,9.663-38.302c0-19.152-30.951-19.152-30.951-38.303
	c0-19.149,76.336-19.149,76.336-38.297c0-19.149-31.936-19.149-31.936-38.298c0-19.151-41.322-19.151-41.322-38.303
	c0-19.152,5.96-19.152,5.96-38.303c0-19.153,4.728-19.153,4.728-38.305c0-19.152,62.986-19.152,62.986-38.304
	c0-19.155-40.379-19.155-40.379-38.309s-14.658-30.802-1.226-44.348c13.429-13.543,24.986-13.283,43.98-13.283
	c18.995,0,18.995-0.73,37.99-0.73c18.996,0,18.996,14.455,37.991,14.455c18.993,0,18.993-30.371,37.985-30.371
	c18.993,0,18.993,12.184,37.986,12.184c18.995,0,18.995,16.699,37.991,16.699c18.996,0,18.996-38.707,37.992-38.707
	c18.997,0,18.997,44.756,37.993,44.756c18.996,0,18.996,10.979,37.992,10.979c18.999,0,18.999-32.789,37.997-32.789
	c18.999,0,39.388-5.646,52.823,7.896c13.432,13.54-19.911,34.101-19.911,53.251c0,19.151-2.06,19.151-2.06,38.302
	c0,19.152,19.677,19.152,19.677,38.303c0,19.149,5.202,19.149,5.202,38.297c0,19.149-56.852,19.149-56.852,38.298
	c0,19.151,5.892,19.151,5.892,38.303c0,19.152,55.539,19.152,55.539,38.303c0,19.153,18.645,19.153,18.645,38.305
	c0,19.152-21.246,19.152-21.246,38.304c0,19.155-27.302,19.749-25.651,38.831C504.491,495.373,513.737,494.774,500.304,508.32z"/>
</svg>
